<svg width="58" height="58" viewBox="0 0 58 58" fill="none" xmlns="http://www.w3.org/2000/svg">
<path d="M58 20.5051C50.8571 21.0581 45.075 22.6655 40.7127 24.5237C38.0045 25.6772 35.8552 26.9225 34.272 28.0622C33.889 28.3381 33.545 28.6035 33.2381 28.8551C33.0111 29.0416 32.8043 29.2209 32.6171 29.3916C35.1307 31.465 37.2654 33.5785 38.9582 35.5618C39.749 36.4887 40.4584 37.4042 41.0703 38.2902C45.5585 35.2709 51.1708 33.0307 58 32.3345V20.5051Z" fill="white"/>
<path d="M58 36.5012C51.9127 37.1902 46.9837 39.2382 43.0805 41.933L43.1268 42.056L43.1747 42.1891L42.2808 42.5047C40.7462 43.6395 39.3807 44.8739 38.1755 46.1596C34.4599 50.1229 32.3006 54.5307 31.3857 58H46.4C52.8065 58 58 52.8064 58 46.4V36.5012Z" fill="white"/>
<path d="M26.2 58C25.2851 54.5307 23.1259 50.1229 19.4102 46.1596C15.1132 41.5762 8.7793 37.6425 0 36.5506V46.4C0 52.8064 5.19354 58 11.6 58H26.2Z" fill="white"/>
<path d="M0 32.379C10.0432 33.5029 17.4201 37.9795 22.4326 43.326C25.2931 46.3773 27.4003 49.7325 28.7929 52.9209C30.1854 49.7325 32.2926 46.3773 35.1531 43.326C35.9644 42.4606 36.8374 41.6183 37.7738 40.8091C37.2463 40.0311 36.5923 39.1714 35.8069 38.2514C33.9389 36.0626 31.4241 33.6417 28.3638 31.3036C21.2508 25.8681 11.3573 21.0007 0 20.3691V32.379Z" fill="white"/>
<path d="M11.6 0C5.19354 0 0 5.19354 0 11.6V16.2203C11.6469 16.8122 21.7883 21.4834 29.2914 26.8388C29.9957 26.1368 30.8589 25.4146 31.8519 24.6998C33.7059 23.3655 36.1267 21.9741 39.0891 20.7123C43.9372 18.6469 50.2676 16.9141 58 16.3505V11.6C58 5.19354 52.8065 0 46.4 0H11.6Z" fill="#FAE084"/>
</svg>
