<svg width="24" height="24" viewBox="0 0 24 24" fill="none" xmlns="http://www.w3.org/2000/svg">
<path d="M6.19727 5.00089C6.19699 5.53129 5.97562 6.03987 5.58185 6.41473C5.18809 6.7896 4.65418 7.00004 4.09759 6.99978C3.54099 6.99951 3.00731 6.78856 2.61393 6.41332C2.22056 6.03808 1.99972 5.52929 2 4.99889C2.00028 4.46849 2.22165 3.95991 2.61542 3.58505C3.00919 3.21018 3.54309 2.99974 4.09969 3C4.65628 3.00027 5.18996 3.21122 5.58334 3.58646C5.97671 3.9617 6.19755 4.47049 6.19727 5.00089ZM6.26023 8.4807H2.06296V21H6.26023V8.4807ZM12.8919 8.4807H8.71564V21H12.8499V14.4304C12.8499 10.7706 17.8552 10.4306 17.8552 14.4304V21H22V13.0704C22 6.90078 14.5918 7.13077 12.8499 10.1606L12.8919 8.4807Z" fill="white" fill-opacity="0.75"/>
</svg>
