<svg width="24" height="24" viewBox="0 0 24 24" fill="none" xmlns="http://www.w3.org/2000/svg">
<path fill-rule="evenodd" clip-rule="evenodd" d="M19.6417 6.55108C20.502 6.04525 21.1449 5.24934 21.45 4.31232C20.6583 4.77804 19.7833 5.11304 18.8417 5.2928C18.2811 4.69647 17.5493 4.28074 16.7428 4.10042C15.9364 3.9201 15.0931 3.98366 14.3243 4.28273C13.5554 4.58179 12.8971 5.10231 12.436 5.77565C11.975 6.44899 11.7329 7.24352 11.7417 8.05448C11.7417 8.36497 11.7833 8.67545 11.85 8.9696C8.43333 8.80618 5.41667 7.20473 3.39167 4.75353C2.86112 5.64191 2.69762 6.69573 2.93473 7.69861C3.17185 8.70148 3.79158 9.57729 4.66667 10.1462C4.0148 10.1256 3.37751 9.95183 2.80833 9.63959V9.68861C2.80833 11.6496 4.225 13.2755 6.1 13.6432C5.49712 13.8057 4.86432 13.8309 4.25 13.7168C4.51074 14.5177 5.02055 15.2186 5.70798 15.7212C6.39541 16.2237 7.226 16.5028 8.08333 16.5193C7.23162 17.1769 6.25561 17.6627 5.21155 17.9487C4.16748 18.2348 3.076 18.3155 2 18.1861C3.87542 19.3719 6.06009 20.0018 8.29167 20C15.8333 20 19.9583 13.8557 19.9583 8.52021V7.99729C20.7597 7.42721 21.4511 6.72168 22 5.91377C21.2667 6.23242 20.475 6.44486 19.6417 6.54291V6.55108Z" fill="white"/>
</svg>
